<svg width="500" height="500" viewBox="0 0 132.29 132.29" xmlns="http://www.w3.org/2000/svg"><path d="M68.8 71.543l49.413-32.913.631 55.162-49.413 32.913z" fill-rule="evenodd"/><path d="M63.287 5.351L13.825 38.468l53.432 30.657 49.463-33.117zm-5.145 13.394a21.698 21.698 0 013.878.308c2.067.342 4.052 1.059 5.956 2.15 1.249.717 2.212 1.464 2.892 2.242.679.778 1.168 1.572 1.467 2.382.317.798.493 1.617.526 2.458.052.828.065 1.669.042 2.522-.025.83-.02 1.666.013 2.506.051.828.226 1.648.525 2.458.298.787.786 1.569 1.466 2.346.66.767 1.604 1.503 2.833 2.208l-5.157 4.229c-1.764-1.013-3.165-2.01-4.2-2.992-1.037-.983-1.822-1.936-2.358-2.86-.537-.946-.88-1.862-1.031-2.747a13.373 13.373 0 01-.191-2.608c.023-.853.059-1.666.106-2.437a7.909 7.909 0 00-.11-2.22 5.125 5.125 0 00-.812-2.006c-.422-.63-1.099-1.212-2.03-1.747a9.617 9.617 0 00-3.227-1.166 11.006 11.006 0 00-3.358-.045c-1.1.145-2.19.444-3.27.896-1.083.429-2.11.97-3.083 1.62a8.929 8.929 0 00-1.847 1.644 7.765 7.765 0 00-1.224 2.002 7.764 7.764 0 00-.52 2.234c-.048.771.039 1.54.258 2.305L38.754 35c-.41-1.353-.507-2.618-.294-3.797a9.442 9.442 0 011.229-3.299 13.01 13.01 0 012.266-2.738 23.743 23.743 0 012.816-2.218c1.56-1.044 3.292-1.921 5.198-2.63a23.774 23.774 0 015.876-1.42 20.755 20.755 0 012.296-.154zM84.457 44.59c.688-.017 1.36.05 2.02.2.677.138 1.284.36 1.82.668.535.307.95.67 1.243 1.09.292.395.451.806.478 1.232.045.414-.044.83-.267 1.25-.204.409-.553.778-1.049 1.11-.514.344-1.1.601-1.758.77s-1.332.264-2.019.28-1.37-.044-2.047-.182c-.679-.162-1.286-.396-1.822-.703s-.949-.659-1.241-1.055c-.274-.408-.424-.824-.45-1.25a2.19 2.19 0 01.296-1.234c.222-.42.58-.796 1.076-1.128s1.073-.583 1.731-.752a7.958 7.958 0 011.99-.296z"/><path d="M65.067 71.73l-51.62-29.296.872 55.209 51.62 29.295z" fill-rule="evenodd"/></svg>