<svg width="500" height="500" version="1.1" viewBox="0 0 132.29 132.29" xmlns="http://www.w3.org/2000/svg">
    <g transform="translate(-.80528 11.407)">
        <g transform="matrix(1.2448 0 0 1.1642 -16.389 -8.9879)" fill="#fbdcdb">
            <path transform="matrix(.81454 -.58011 .010701 .99994 0 0)" d="m83.396 107.76h48.734v47.385h-48.734z" fill-rule="evenodd" stroke-width="0"/>
            <path transform="matrix(.67932 -.48632 .73384 .45019 -27.224 32.298)" d="m95.391 36.898-58.493 9.2e-5 1.1e-5 58.493 58.493-9.1e-5zm-15.548 8.7597c0.7138 0.74263 1.322 1.5949 1.8238 2.5579 0.80299 1.5192 1.2043 3.3211 1.2043 5.4045 0 1.3672-0.18431 2.593-0.55325 3.6782-0.36894 1.0851-0.85762 2.0729-1.4653 2.9627-0.58596 0.8898-1.2691 1.7145-2.0504 2.4741-0.75958 0.75958-1.5518 1.5079-2.3765 2.2457-0.80299 0.71618-1.595 1.4543-2.3763 2.2138-0.75958 0.75958-1.4437 1.5844-2.0513 2.4742-0.58596 0.8681-1.0631 1.8446-1.432 2.9297-0.36894 1.0634-0.5535 2.2681-0.5535 3.6136l-6.8362 0.68355c0-1.9315 0.18407-3.6352 0.55301-5.1109 0.36894-1.4758 0.84703-2.7781 1.433-3.9067 0.60767-1.1502 1.2911-2.159 2.0506-3.0271 0.78128-0.8898 1.5734-1.6928 2.3763-2.4089 0.82469-0.73788 1.617-1.4328 2.3766-2.0838 0.78129-0.65107 1.4647-1.3236 2.0507-2.0181 0.60767-0.69448 1.0963-1.4435 1.4652-2.2465 0.36894-0.80299 0.55328-1.7146 0.55328-2.7346 0-1.1285-0.21725-2.1046-0.6513-2.9293-0.43405-0.82469-1.0305-1.4979-1.7901-2.0187-0.73788-0.52086-1.6171-0.90086-2.6371-1.1396-0.99831-0.26043-2.0726-0.39031-3.2229-0.39031-0.82469 0-1.6817 0.11934-2.5715 0.35806-0.8681 0.23873-1.7257 0.58587-2.5721 1.0416-0.82469 0.45575-1.6274 1.009-2.4087 1.66-0.75958 0.65107-1.4434 1.3788-2.0511 2.1818l-4.3297-3.581c1.0634-1.4324 2.2139-2.6048 3.4509-3.5163 1.2587-0.9332 2.5282-1.6598 3.8086-2.1806 1.3021-0.52086 2.5826-0.87904 3.8413-1.0744 1.2804-0.19532 2.4961-0.29322 3.6463-0.29322 1.8447 0 3.6241 0.2494 5.3386 0.74855 1.7145 0.47745 3.2334 1.2157 4.5573 2.214 0.50458 0.36623 0.97109 0.77225 1.3994 1.2178zm-10.221 38.27c0.39064 0.39064 0.69436 0.8459 0.91138 1.3668 0.23873 0.52086 0.35793 1.0748 0.35793 1.6608 0 0.58596-0.11901 1.1498-0.35773 1.6923-0.21702 0.52086-0.52102 0.9765-0.91167 1.3671-0.36894 0.39064-0.81414 0.70555-1.335 0.94428-0.49916 0.23873-1.0412 0.35776-1.6272 0.35776-0.60767 0-1.1725-0.11896-1.6934-0.35769s-0.97645-0.55356-1.3671-0.9442-0.70492-0.84632-0.94364-1.3672c-0.21702-0.54256-0.3258-1.1067-0.3258-1.6927s0.10857-1.1396 0.3256-1.6605c0.23873-0.52086 0.55329-0.97609 0.94393-1.3667 0.39064-0.39064 0.83596-0.69498 1.3351-0.912 0.52086-0.23873 1.074-0.35787 1.66-0.35787s1.1397 0.11908 1.6605 0.3578c0.52086 0.21702 0.97632 0.52128 1.367 0.91192z"/>
            <path transform="matrix(-.85491 -.51878 .014773 .99989 0 0)" d="m-76.96 19.612h48.506v47.427h-48.506z" fill-rule="evenodd" stroke-width="0"/>
        </g>
    </g>
</svg>
