<?xml version="1.0" standalone="no"?>
<!DOCTYPE svg PUBLIC "-//W3C//DTD SVG 20010904//EN"
 "http://www.w3.org/TR/2001/REC-SVG-20010904/DTD/svg10.dtd">
<svg version="1.0" xmlns="http://www.w3.org/2000/svg"
 width="700.000000pt" height="700.000000pt" viewBox="0 0 700.000000 700.000000"
 preserveAspectRatio="xMidYMid meet">
<metadata>
Created by potrace 1.14, written by Peter Selinger 2001-2017
</metadata>
<g transform="translate(0.000000,700.000000) scale(0.100000,-0.100000)"
fill="#000000" stroke="none">
<path d="M2335 5514 c-572 -410 -1041 -749 -1043 -753 -3 -9 2232 -1383 2252
-1385 12 -1 2096 1484 2096 1494 -1 5 -2244 1383 -2259 1387 -3 1 -474 -333
-1046 -743z m938 -190 c119 -31 211 -94 247 -171 17 -37 24 -77 32 -187 6 -88
15 -153 25 -174 11 -23 43 -51 107 -92 50 -32 99 -65 108 -72 16 -12 10 -18
-58 -67 l-76 -53 -86 52 c-191 116 -209 144 -222 343 -9 149 -19 178 -76 225
-97 81 -273 73 -404 -17 -61 -42 -128 -131 -155 -207 -9 -27 -20 -57 -23 -66
-6 -14 -18 -10 -84 30 -43 26 -78 54 -78 62 1 27 36 94 83 155 49 65 151 148
236 190 122 61 299 82 424 49z m805 -862 l110 -68 -32 -21 c-17 -12 -54 -38
-83 -58 l-52 -37 -111 67 c-61 38 -107 72 -103 76 15 15 148 108 155 109 3 0
56 -31 116 -68z"/>
<path d="M4661 3998 l-1044 -743 8 -815 c4 -448 10 -1011 14 -1250 l6 -436
1035 738 c569 406 1040 742 1046 746 9 5 8 323 -2 1247 -8 682 -15 1244 -17
1248 -1 4 -472 -326 -1046 -735z"/>
<path d="M1266 4353 c3 -120 12 -681 20 -1248 8 -566 18 -1033 22 -1037 9 -9
2176 -1326 2179 -1324 3 2 -36 2499 -40 2502 -6 6 -2179 1324 -2183 1324 -2 0
-1 -98 2 -217z"/>
</g>
</svg>
