<?xml version="1.0" standalone="no"?>
<!DOCTYPE svg PUBLIC "-//W3C//DTD SVG 20010904//EN"
 "http://www.w3.org/TR/2001/REC-SVG-20010904/DTD/svg10.dtd">
<svg version="1.0" xmlns="http://www.w3.org/2000/svg"
 width="700.000000pt" height="700.000000pt" viewBox="0 0 700.000000 700.000000"
 preserveAspectRatio="xMidYMid meet">
<metadata>
Created by potrace 1.14, written by Peter Selinger 2001-2017
</metadata>
<g transform="translate(0.000000,700.000000) scale(0.100000,-0.100000)"
fill="#000000" stroke="none">
<path d="M3135 6575 c-110 -74 -204 -138 -210 -142 -5 -4 -253 -170 -550 -368
-297 -198 -544 -364 -550 -368 -5 -4 -250 -169 -544 -365 -294 -197 -536 -363
-539 -370 -2 -7 0 -12 6 -12 9 0 218 -119 865 -491 180 -104 332 -189 337
-189 6 0 10 -4 10 -10 0 -5 4 -10 9 -10 5 0 96 -50 203 -111 234 -135 730
-419 778 -447 19 -10 139 -79 265 -152 127 -73 250 -144 275 -158 25 -13 50
-28 56 -33 6 -5 225 135 575 369 1672 1120 1968 1318 2007 1344 l43 30 -23 17
c-13 10 -48 31 -78 48 -78 43 -883 504 -895 513 -5 4 -37 22 -70 40 -33 18
-222 127 -420 240 -198 114 -376 216 -395 227 -19 11 -219 126 -445 255 -511
294 -483 278 -498 278 -7 -1 -102 -61 -212 -135z m133 -580 c71 -10 206 -52
263 -82 145 -77 213 -133 264 -218 50 -83 57 -120 61 -305 2 -96 8 -197 14
-224 10 -45 37 -115 50 -126 3 -3 18 -22 34 -43 16 -22 56 -59 90 -84 33 -25
62 -46 64 -48 5 -5 -258 -215 -270 -215 -15 0 -102 55 -163 104 -105 84 -177
175 -217 275 -20 50 -22 76 -24 251 -3 214 -3 220 -32 277 -62 120 -231 197
-417 188 -128 -5 -219 -34 -344 -106 -174 -100 -261 -257 -231 -419 4 -22 5
-40 1 -41 -3 0 -17 -2 -31 -4 -14 -1 -63 -6 -110 -9 -47 -4 -115 -9 -152 -12
l-67 -6 -9 33 c-16 54 -7 187 16 251 34 94 97 180 197 266 69 59 66 58 153
111 151 93 361 168 518 186 33 4 60 8 62 10 5 5 236 -3 280 -10z m1368 -1384
c60 -26 111 -75 123 -117 17 -61 -27 -132 -104 -169 -48 -22 -93 -29 -185 -29
-166 0 -284 85 -267 191 10 59 68 109 161 138 64 20 210 12 272 -14z"/>
<path d="M5960 4760 c-157 -104 -296 -197 -310 -207 -14 -10 -128 -86 -255
-170 -126 -84 -237 -158 -246 -164 -8 -6 -62 -42 -120 -79 -57 -38 -108 -73
-114 -77 -5 -4 -48 -33 -95 -63 -47 -30 -87 -57 -90 -60 -3 -3 -84 -57 -180
-120 -96 -63 -177 -117 -180 -120 -3 -3 -84 -57 -180 -120 -96 -63 -177 -117
-180 -120 -3 -3 -87 -59 -187 -125 l-182 -120 4 -355 c2 -195 7 -616 11 -935
3 -319 7 -681 9 -805 2 -124 4 -359 6 -523 1 -212 5 -297 13 -293 6 2 594 393
1306 868 l1295 863 -2 300 c0 165 -4 532 -7 815 -3 283 -9 738 -12 1010 -3
272 -6 561 -7 643 -1 81 -4 147 -7 147 -3 0 -133 -86 -290 -190z"/>
<path d="M715 4518 c2 -128 7 -408 10 -623 3 -214 8 -496 10 -625 2 -129 7
-422 10 -650 4 -228 8 -497 10 -598 1 -101 6 -187 11 -192 8 -6 203 -118 474
-270 36 -20 286 -162 555 -315 270 -153 656 -372 858 -487 202 -115 384 -218
405 -230 74 -42 248 -141 302 -171 30 -17 69 -39 85 -49 17 -10 33 -18 38 -18
4 0 5 114 2 253 -2 138 -7 423 -10 632 -3 209 -8 490 -10 625 -14 921 -17
1112 -20 1249 -2 118 -5 156 -16 162 -27 17 -102 61 -151 87 -27 15 -57 32
-66 37 -15 9 -299 171 -377 215 -16 9 -113 64 -215 122 -102 58 -207 117 -235
133 -27 15 -79 44 -115 65 -69 40 -408 233 -475 270 -51 28 -378 214 -515 293
-58 33 -125 71 -150 85 -25 14 -127 72 -227 129 -100 56 -184 103 -187 103 -3
0 -3 -105 -1 -232z"/>
</g>
</svg>
